<svg width="512" height="512" viewBox="0 0 512 512" fill="none" xmlns="http://www.w3.org/2000/svg">
<path d="M262.335 360V356.7L268.935 354.39C276.415 351.97 280.155 345.7 280.155 335.58V166.62C280.155 162.22 279.605 158.7 278.505 156.06C277.625 153.42 275.095 151.22 270.915 149.46L262.335 145.5V142.2H326.025L387.075 301.92L444.495 142.2H509.505V145.5L504.225 147.48C500.045 149.02 497.185 151.22 495.645 154.08C494.105 156.72 493.335 160.24 493.335 164.64V337.23C493.335 341.63 493.885 345.04 494.985 347.46C496.085 349.88 498.725 351.97 502.905 353.73L509.505 356.7V360H427.335V356.7L434.265 353.73C438.445 351.97 441.085 349.88 442.185 347.46C443.285 345.04 443.835 341.63 443.835 337.23V262.98L444.495 168.6L375.525 360H359.025L287.085 170.91L288.075 253.08V336.24C288.075 341.08 288.735 345.04 290.055 348.12C291.595 350.98 294.455 353.07 298.635 354.39L305.895 356.7V360H262.335Z" fill="#BBBBBB"/>
<path d="M4.6001 360V356.7L11.2001 354.39C18.6801 351.97 22.4201 345.7 22.4201 335.58V166.62C22.4201 162.22 21.8701 158.7 20.7701 156.06C19.8901 153.42 17.3601 151.22 13.1801 149.46L4.6001 145.5V142.2H68.2901L129.34 301.92L186.76 142.2H251.77V145.5L246.49 147.48C242.31 149.02 239.45 151.22 237.91 154.08C236.37 156.72 235.6 160.24 235.6 164.64V337.23C235.6 341.63 236.15 345.04 237.25 347.46C238.35 349.88 240.99 351.97 245.17 353.73L251.77 356.7V360H169.6V356.7L176.53 353.73C180.71 351.97 183.35 349.88 184.45 347.46C185.55 345.04 186.1 341.63 186.1 337.23V262.98L186.76 168.6L117.79 360H101.29L29.3501 170.91L30.3401 253.08V336.24C30.3401 341.08 31.0001 345.04 32.3201 348.12C33.8601 350.98 36.7201 353.07 40.9001 354.39L48.1601 356.7V360H4.6001Z" fill="white"/>
</svg>
